<svg xmlns="http://www.w3.org/2000/svg" viewBox="0 0 102.37 98.95"><defs><style>.cls-1{fill:#fff;}</style></defs><g id="圖層_2" data-name="圖層 2"><g id="從選取範圍_影像" data-name="從選取範圍 影像"><path class="cls-1" d="M75.92,8.85c-1.77-1.17-3.48-.69-5,.52s-3,2.67-4.6,3.81c-2.42,1.69-4.7,3.89-7.8,4.1-2,.13-3.85,0-4.73,2.23a3.39,3.39,0,0,0,.76,3.77,5,5,0,0,0,5.69,1.44C62.32,24,64.36,23,66.93,22c-4.08,12.09-7.25,24.12-16.42,33.21a19.62,19.62,0,0,1-8.74,5.25C37,61.69,31.6,59.89,29.22,56.17c-2.73-4.27-.93-8,1.69-11.45a29.78,29.78,0,0,1,4.21-4.19c2.27-2.06,2.35-5.32.41-6.7-3.16-2.26-6,.94-8.33,3.19-7.74,7.35-9.35,16.49-4.32,23.84a16.82,16.82,0,0,0,8.22,6.5c2.17.78,4.65,2,9.1,1.47,10.91-1.76,17.95-8.64,23.38-17.7,7-11.64,9.86-24.8,14-37.49A4,4,0,0,0,75.92,8.85Z"/><path class="cls-1" d="M50.86,32.84c2.42-1.58,4.44-3.77,2.48-6.73s-4.35-1.68-6.72,0c-2,1.44-4.83,2.18-6.27-.1-1.74-2.76-.54-5.39,1.27-7.67a4.65,4.65,0,0,1,6.05-.82c2.07,1.29,4,1.44,5.35-.83s.34-4.38-1.82-5.76a11.4,11.4,0,0,0-13,.82c-6.74,5.35-7.51,16.65-2.49,21.32C38.51,35.69,45.92,36.08,50.86,32.84Z"/><path class="cls-1" d="M78.72,7.87c2.61-.06,3.6-1.94,3.65-4.2S81.17.17,78.83,0C76.41.45,74.9,1.94,75,4.41A3.39,3.39,0,0,0,78.72,7.87Z"/><path class="cls-1" d="M4.71,98.42a5.54,5.54,0,0,1-3.14-1.1C.53,96.6,0,96,0,95.49a.78.78,0,0,1,.28-.63,1.18,1.18,0,0,1,.78-.25,1.27,1.27,0,0,1,.87.48,4.25,4.25,0,0,0,2.81,1.59,2,2,0,0,0,1.72-1.2A13.06,13.06,0,0,0,7.57,91.4,36.18,36.18,0,0,0,8,85.88a.71.71,0,0,1,.35-.58A1.25,1.25,0,0,1,9.1,85a.9.9,0,0,1,.6.24.64.64,0,0,1,.27.5,43.35,43.35,0,0,1-.49,5.63,13.32,13.32,0,0,1-1.63,5.31A3.57,3.57,0,0,1,4.71,98.42Z"/><path class="cls-1" d="M19.21,98.69a1,1,0,0,1-.82-.33,3.56,3.56,0,0,1-.58-2.43v-.86l-.54.67c-1.44,1.78-2.84,2.68-4.16,2.68a1.69,1.69,0,0,1-1.3-.59,2.21,2.21,0,0,1-.55-1.54,8.29,8.29,0,0,1,2.1-5c1.38-1.75,2.78-2.64,4.17-2.64a1.25,1.25,0,0,1,1.28.91l.07.19h.2c.7,0,.79.36.79.65a8.51,8.51,0,0,1-.2,1.34,16.58,16.58,0,0,0-.36,3,5.73,5.73,0,0,0,.17,1.66,5.59,5.59,0,0,0,.23.63,1,1,0,0,0,.5.37c.28.13.28.3.28.35a.76.76,0,0,1-.4.65A1.56,1.56,0,0,1,19.21,98.69Zm-2.06-8.38c-.66,0-1.47.67-2.48,2.07a6.37,6.37,0,0,0-1.47,3.49c0,.22,0,.88.44.88.76,0,1.65-.64,2.72-1.94a5.67,5.67,0,0,0,1.58-3.38,1.25,1.25,0,0,0-.23-.8A.71.71,0,0,0,17.15,90.31Z"/><path class="cls-1" d="M24.59,98.81A2.86,2.86,0,0,1,22.43,98a3,3,0,0,1-.74-2.15,8.7,8.7,0,0,1,1.82-4.83c1.2-1.71,2.38-2.57,3.51-2.57a1.61,1.61,0,0,1,1.34.79A2.85,2.85,0,0,1,28.94,91,1.5,1.5,0,0,1,28.67,92a.82.82,0,0,1-.53.27c-.18,0-.75,0-.88-1.09,0-.25-.12-1-.57-1s-1.18.68-2,2.07a7.44,7.44,0,0,0-1.17,3.56c0,.62.25,1.36,1.45,1.36a5.36,5.36,0,0,0,3-1,2,2,0,0,1,1-.47c.25,0,.35.1.35.35s-.26.81-1.53,1.69A5.54,5.54,0,0,1,24.59,98.81Z"/><path class="cls-1" d="M38.55,98.69a1.06,1.06,0,0,1-.82-.33,3.57,3.57,0,0,1-.57-2.43v-.86l-.55.67c-1.44,1.78-2.84,2.68-4.16,2.68a1.7,1.7,0,0,1-1.29-.59,2.17,2.17,0,0,1-.55-1.54,8.33,8.33,0,0,1,2.09-5c1.39-1.75,2.79-2.64,4.18-2.64a1.22,1.22,0,0,1,1.27.91l.07.19h.2c.71,0,.8.36.8.65a8.51,8.51,0,0,1-.2,1.34,16.58,16.58,0,0,0-.36,3,5.82,5.82,0,0,0,.16,1.66c.14.4.21.57.24.63a1,1,0,0,0,.5.37c.28.13.28.3.28.35a.78.78,0,0,1-.4.65A1.61,1.61,0,0,1,38.55,98.69Zm-2.06-8.38c-.66,0-1.47.67-2.47,2.07a6.4,6.4,0,0,0-1.48,3.49c0,.22,0,.88.44.88.76,0,1.65-.64,2.72-1.94a5.7,5.7,0,0,0,1.59-3.38,1.31,1.31,0,0,0-.23-.8A.72.72,0,0,0,36.49,90.31Z"/><path class="cls-1" d="M43.94,98.45a2.29,2.29,0,0,1-1.26-.37,1.26,1.26,0,0,1-.64-.9,1,1,0,0,0-.17-.52l-.21-.23a.93.93,0,0,1-.22-.67,19.7,19.7,0,0,1,.27-2.3l.61-3.72a47.07,47.07,0,0,1,1.24-6.1,1.23,1.23,0,0,1,1.21-.87c.4,0,.6.4.6,1.17a19.42,19.42,0,0,1-.73,3.66c-.23.81-.5,2-.81,3.55l.53.25a9.88,9.88,0,0,1,2-1.86,4.14,4.14,0,0,1,2.24-.89,1.6,1.6,0,0,1,1.33.67,2.55,2.55,0,0,1,.54,1.62,7.7,7.7,0,0,1-2.1,5.12A5.92,5.92,0,0,1,43.94,98.45Zm4.29-8.06c-1,0-2.1.72-3.31,2.14a6.29,6.29,0,0,0-1.82,3.52v.09l0,.08a1.15,1.15,0,0,0,.94.65,3.4,3.4,0,0,0,2-.8,7,7,0,0,0,1.83-2.24,5.47,5.47,0,0,0,.77-2.41c0-.59-.09-.9-.28-1l-.07,0Z"/><path class="cls-1" d="M54.52,98.76a3,3,0,0,1-2.29-.92,3.71,3.71,0,0,1-.83-2.57,7.3,7.3,0,0,1,1.75-4.64,4.85,4.85,0,0,1,3.7-2.15,2,2,0,0,1,1.52.59,2,2,0,0,1,.57,1.43,4,4,0,0,1-1.46,2.88,8,8,0,0,1-3.79,1.93.43.43,0,0,0-.37.45,1.29,1.29,0,0,0,.42.92,1.5,1.5,0,0,0,1.12.44,5.21,5.21,0,0,0,3.69-1.91.84.84,0,0,1,.56-.32c.21,0,.41.06.41.47,0,.58-.52,1.29-1.53,2.13A5.35,5.35,0,0,1,54.52,98.76ZM56.61,90a2.62,2.62,0,0,0-1.84,1.2,6.25,6.25,0,0,0-1.22,2.24l-.14.5.5-.13a5.67,5.67,0,0,0,2.3-1.18,2.59,2.59,0,0,0,1.13-1.79.91.91,0,0,0-.19-.59A.66.66,0,0,0,56.61,90Z"/><path class="cls-1" d="M67.08,99a3.57,3.57,0,0,1-2.51-.89,3.07,3.07,0,0,1-.95-2.33c0-1.54,1-2.93,2.88-4.14a.5.5,0,0,0,.27-.43,1.23,1.23,0,0,0-.09-.39,6.4,6.4,0,0,1-.43-2.21,3.55,3.55,0,0,1,.9-2.5,2.93,2.93,0,0,1,2.26-1,2.13,2.13,0,0,1,1.75.81,3,3,0,0,1,.65,1.89c0,1.2-.77,2.4-2.31,3.58a.73.73,0,0,0-.34.55c0,.22.1.65,1,1.79a10.45,10.45,0,0,0,1.34,1.51l.22.19.2-.21a6,6,0,0,0,1.24-2l.12-.35-.51-.06a1.62,1.62,0,0,1-1-.31,1,1,0,0,1-.24-.69.72.72,0,0,1,.24-.52A.71.71,0,0,1,72.2,91a3.79,3.79,0,0,1,.83.19,5.45,5.45,0,0,0,1.55.2,11.28,11.28,0,0,0,1.34-.09,9.47,9.47,0,0,1,1-.09c.5,0,.57.23.57.43,0,.62-.43,1-1.31,1a3,3,0,0,0-.75.14.89.89,0,0,0-.39.4A10.79,10.79,0,0,1,73.07,96l-.27.27.32.2A3.36,3.36,0,0,0,75,97a2.68,2.68,0,0,0,.9-.2l.14,0c.12,0,.4,0,.4.59a1.4,1.4,0,0,1-.49.86,1.67,1.67,0,0,1-1.24.51,5.31,5.31,0,0,1-3.16-1.11l-.17-.13-.17.13A7.11,7.11,0,0,1,67.08,99Zm.14-6a3.36,3.36,0,0,0-1.61,2.69,1.55,1.55,0,0,0,.58,1.26,2.4,2.4,0,0,0,1.51.44,4,4,0,0,0,2.2-.7l.31-.19L70,96.19a15.39,15.39,0,0,1-2.29-3.14l-.17-.29Zm2-6.42a1,1,0,0,0-.85.56A2.22,2.22,0,0,0,68,88.34a5.46,5.46,0,0,0,.29,1.76l.15.41.33-.29a3.19,3.19,0,0,0,1.34-2.38,1.6,1.6,0,0,0-.25-.89A.8.8,0,0,0,69.21,86.54Z"/><path class="cls-1" d="M83.64,98.81A2.85,2.85,0,0,1,81.48,98a3,3,0,0,1-.74-2.15,8.7,8.7,0,0,1,1.82-4.83c1.2-1.71,2.38-2.57,3.51-2.57a1.62,1.62,0,0,1,1.34.79A2.92,2.92,0,0,1,88,91,1.45,1.45,0,0,1,87.71,92a.78.78,0,0,1-.52.27c-.18,0-.75,0-.88-1.09,0-.43-.17-1-.58-1s-1.17.68-2,2.06a7.4,7.4,0,0,0-1.17,3.57c0,.62.25,1.36,1.45,1.36a5.3,5.3,0,0,0,3-1,2,2,0,0,1,1-.47c.25,0,.36.1.36.35s-.26.81-1.53,1.69A5.61,5.61,0,0,1,83.64,98.81Z"/><path class="cls-1" d="M92.76,98.75a2.68,2.68,0,0,1-2.09-.93,3.38,3.38,0,0,1-.83-2.31A7.74,7.74,0,0,1,91.4,91a4.51,4.51,0,0,1,3.73-2.19,2.93,2.93,0,0,1,2.38,1.09,3.93,3.93,0,0,1,.93,2.62,5.55,5.55,0,0,1-.15,1.29A7.05,7.05,0,0,1,96,97.34,5.13,5.13,0,0,1,92.76,98.75ZM95,90.45a1.89,1.89,0,0,0-1.29.49,6.11,6.11,0,0,0-1.27,1.83,5.68,5.68,0,0,0-.62,2.52,2.69,2.69,0,0,0,.29,1.3.94.94,0,0,0,.85.55,3.49,3.49,0,0,0,2.42-1.36,4.49,4.49,0,0,0,1.24-3.07,2.92,2.92,0,0,0-.41-1.6A1.38,1.38,0,0,0,95,90.45Z"/><path class="cls-1" d="M100.82,98.08a1.07,1.07,0,0,1-.7-.18c-.08-.06-.21-.28-.21-1a4.69,4.69,0,0,1,0-.75c0-.12.14-.23.35-.31a3,3,0,0,1,1.08-.15,1.1,1.1,0,0,1,.75.23.6.6,0,0,1,.24.46,1.44,1.44,0,0,1-.14.7,2.77,2.77,0,0,1-.65.63A1.35,1.35,0,0,1,100.82,98.08Z"/></g></g></svg>