<svg xmlns="http://www.w3.org/2000/svg" viewBox="0 0 231.84 38.62"><defs><style>.cls-1{fill:#fff;stroke:#fff;stroke-miterlimit:10;}</style></defs><g id="圖層_2" data-name="圖層 2"><g id="從選取範圍_影像" data-name="從選取範圍 影像"><path class="cls-1" d="M23.36,6.24h0a2.94,2.94,0,0,0-3.82.06,2.24,2.24,0,0,0-1.07,1.83,81.44,81.44,0,0,1-1,12.29c-.66,4.26-1.47,7.26-2.42,8.91s-2,2.36-3.26,2.36c-1.69,0-3.65-1.14-5.82-3.39a3.53,3.53,0,0,0-2.43-1.25,3.29,3.29,0,0,0-2.19.71A2.44,2.44,0,0,0,.5,29.69c0,1.36,1.25,2.89,3.81,4.66a13.11,13.11,0,0,0,7.43,2.58,8.62,8.62,0,0,0,7.58-4.16c1.77-2.69,3-6.79,3.78-12.17A100,100,0,0,0,24.2,7.88,2.1,2.1,0,0,0,23.36,6.24Z"/><path class="cls-1" d="M46.79,33.37h0c-.65-.29-.77-.48-.79-.52a10.37,10.37,0,0,1-.49-1.32A12.21,12.21,0,0,1,45.16,28a36.58,36.58,0,0,1,.8-6.57,18.21,18.21,0,0,0,.45-3.14c0-.93-.43-2-2.42-2.13a3.43,3.43,0,0,0-3.49-2.49c-3.33,0-6.66,2.08-9.89,6.18s-4.83,8-4.83,11.61a5.59,5.59,0,0,0,1.4,3.9,4.47,4.47,0,0,0,3.4,1.55c3.18,0,6.49-2.1,9.85-6.26,0,2.89.45,4.83,1.48,5.91a3,3,0,0,0,2.32,1,4.23,4.23,0,0,0,2.37-.75,2.35,2.35,0,0,0,1.2-2A1.51,1.51,0,0,0,46.79,33.37Zm-15-1.54c-.16,0-.32-.4-.32-1.29,0-2,1.07-4.52,3.18-7.45,2.61-3.6,4.16-4.35,5-4.35a.92.92,0,0,1,.73.45,2.18,2.18,0,0,1,.38,1.38c0,2-1.14,4.43-3.39,7.16S33.21,31.83,31.75,31.83Z"/><path class="cls-1" d="M66.22,29.43a5,5,0,0,0-2.67,1.17,11.18,11.18,0,0,1-6.35,2.24c-1.76,0-2.58-.75-2.58-2.36a16,16,0,0,1,2.54-7.67c2.15-3.74,3.33-4.3,3.84-4.3.19,0,.47.44.62,1.66.3,2.5,1.61,3,2.65,3a2.46,2.46,0,0,0,1.63-.77,3.87,3.87,0,0,0,.83-2.88,7.16,7.16,0,0,0-1.42-4.17,4.29,4.29,0,0,0-3.57-2.06c-2.76,0-5.59,2-8.4,6.06s-4.2,7.76-4.2,11.21A7.36,7.36,0,0,0,51,35.87,7,7,0,0,0,56.3,37.8,13.22,13.22,0,0,0,64,35.24c2.5-1.75,3.71-3.17,3.71-4.34A1.33,1.33,0,0,0,66.22,29.43Z"/><path class="cls-1" d="M90.16,33.37h0c-.65-.29-.77-.48-.79-.52a10.37,10.37,0,0,1-.49-1.32A12.59,12.59,0,0,1,88.53,28a36.58,36.58,0,0,1,.8-6.57,18.21,18.21,0,0,0,.45-3.14c0-.93-.42-2-2.42-2.13a3.43,3.43,0,0,0-3.49-2.49c-3.33,0-6.65,2.08-9.88,6.18s-4.84,8-4.84,11.61a5.59,5.59,0,0,0,1.4,3.9A4.47,4.47,0,0,0,74,36.93c3.18,0,6.49-2.1,9.85-6.26,0,2.89.45,4.83,1.48,5.91a3,3,0,0,0,2.32,1A4.2,4.2,0,0,0,90,36.79a2.36,2.36,0,0,0,1.21-2A1.53,1.53,0,0,0,90.16,33.37Zm-15-1.54c-.16,0-.32-.4-.32-1.29,0-2,1.07-4.52,3.18-7.45,2.61-3.6,4.16-4.35,5-4.35a.92.92,0,0,1,.73.45,2.18,2.18,0,0,1,.38,1.38c0,2-1.14,4.43-3.39,7.16S76.58,31.83,75.12,31.83Z"/><path class="cls-1" d="M104.69,15.79a23.81,23.81,0,0,0-4.59,4.28c.69-3.43,1.29-6.09,1.8-7.9a42.29,42.29,0,0,0,1.66-8.38c0-2.72-1.1-3.29-2-3.29a3.38,3.38,0,0,0-3.33,2.37c-.59,1.46-1.51,6-2.83,13.81L94,25a43.46,43.46,0,0,0-.63,5.26,2.72,2.72,0,0,0,.68,1.94l.47.53a1.67,1.67,0,0,1,.21.79,3.45,3.45,0,0,0,1.74,2.51,5.9,5.9,0,0,0,3.2.93c3.67,0,7.17-1.88,10.41-5.59A17.93,17.93,0,0,0,115,19.48a6.4,6.4,0,0,0-1.34-4C111.64,12.89,108.44,13.19,104.69,15.79Zm4.88,4.76a11.5,11.5,0,0,1-1.66,5.09,14.6,14.6,0,0,1-3.91,4.8,6.91,6.91,0,0,1-4,1.67c-.54,0-1.05-.39-1.53-1.15,0-2,1.36-4.49,3.91-7.48s4.9-4.56,6.91-4.56C109.31,18.92,109.57,19.08,109.57,20.55Z"/><path class="cls-1" d="M133.7,27.67a2.49,2.49,0,0,0-1.76.92c-2.58,2.7-5.2,4.06-7.78,4.06a2.7,2.7,0,0,1-2-.76,2.27,2.27,0,0,1-.76-1.6c0-.18.06-.3.33-.37a18.74,18.74,0,0,0,8.8-4.47c2.31-2.18,3.48-4.52,3.48-7a5.15,5.15,0,0,0-5.36-5.2c-3.13,0-6.1,1.71-8.82,5.08a17,17,0,0,0-4.08,10.81,9,9,0,0,0,2.06,6.23,7.28,7.28,0,0,0,5.63,2.27,12.6,12.6,0,0,0,8.2-3c2.46-2,3.66-3.77,3.66-5.29C135.27,28.28,134.71,27.67,133.7,27.67Zm-5.61-9.56a.82.82,0,0,1,.68.32,1.38,1.38,0,0,1,.29.89c0,1-.78,2.19-2.3,3.5a12,12,0,0,1-4.88,2.51,13.27,13.27,0,0,1,2.6-4.77C125.82,18.94,127,18.11,128.09,18.11Z"/><path class="cls-1" d="M173.53,19.48a22,22,0,0,0-2.24.21,15.53,15.53,0,0,1-6.21-.23,8.36,8.36,0,0,0-2-.44,2.54,2.54,0,0,0-2.28,2.36,2.81,2.81,0,0,0,.74,2,4.23,4.23,0,0,0,2.7.9l.31,0a12.4,12.4,0,0,1-2.65,4.21,24.38,24.38,0,0,1-2.91-3.3c-1.7-2.2-2.06-3.17-2.06-3.59s.27-.53.51-.7c3.61-2.78,5.44-5.65,5.44-8.56a7.28,7.28,0,0,0-1.62-4.66,5.41,5.41,0,0,0-4.45-2.08,7.23,7.23,0,0,0-5.56,2.42A8.73,8.73,0,0,0,149,14.14a15,15,0,0,0,1,5.18,2.09,2.09,0,0,1,.16.65c0,.06,0,.22-.29.39-4.49,2.85-6.77,6.16-6.77,9.85a7.52,7.52,0,0,0,2.35,5.73,8.59,8.59,0,0,0,6.09,2.18A16.42,16.42,0,0,0,161.08,35a12.58,12.58,0,0,0,7.47,2.62,4.41,4.41,0,0,0,3.26-1.35,3.76,3.76,0,0,0,1.3-2.41c0-1.72-1-2-1.57-2A1.59,1.59,0,0,0,171,32a5.27,5.27,0,0,1-1.79.4,6.91,6.91,0,0,1-3.74-1.18,25,25,0,0,0,4.46-6.28,1.2,1.2,0,0,1,.54-.57,5.23,5.23,0,0,1,1.47-.26c2.93-.22,3.54-1.73,3.54-3C175.47,20.51,175.22,19.48,173.53,19.48Zm-17.2-9.2a1.14,1.14,0,0,1,.93.62,2.8,2.8,0,0,1,.46,1.62c0,1.65-.93,3.28-2.77,4.85a11.26,11.26,0,0,1-.62-3.72,4.34,4.34,0,0,1,.66-2.42A1.66,1.66,0,0,1,156.33,10.28Zm1.19,21.45A8.47,8.47,0,0,1,153,33.18a4.72,4.72,0,0,1-3-.85,2.73,2.73,0,0,1-1-2.3c0-2,1.12-3.86,3.33-5.48A35.84,35.84,0,0,0,157.52,31.73Z"/><path class="cls-1" d="M198.6,29.43a5,5,0,0,0-2.67,1.17,11.15,11.15,0,0,1-6.34,2.24c-1.76,0-2.59-.75-2.59-2.36a16,16,0,0,1,2.54-7.67c2.15-3.74,3.33-4.3,3.84-4.3.19,0,.48.44.63,1.66.29,2.5,1.6,3,2.64,3a2.46,2.46,0,0,0,1.63-.77,3.87,3.87,0,0,0,.83-2.88,7.16,7.16,0,0,0-1.42-4.17,4.29,4.29,0,0,0-3.57-2.06c-2.76,0-5.59,2-8.4,6.06s-4.2,7.76-4.2,11.21a7.35,7.35,0,0,0,1.83,5.29,7.06,7.06,0,0,0,5.33,1.93,13.22,13.22,0,0,0,7.68-2.56c2.5-1.75,3.72-3.17,3.72-4.34A1.34,1.34,0,0,0,198.6,29.43Z"/><path class="cls-1" d="M214.44,14.08c-3.49,0-6.48,1.74-8.91,5.19a18.1,18.1,0,0,0-3.62,10.46,8.19,8.19,0,0,0,2,5.62,6.67,6.67,0,0,0,5.19,2.31,12,12,0,0,0,7.79-3.33,16.5,16.5,0,0,0,5.25-8.13l0-.08a14.11,14.11,0,0,0,.34-3.05,9.52,9.52,0,0,0-2.23-6.31A7.3,7.3,0,0,0,214.44,14.08Zm-3,6,.12-.09a3.62,3.62,0,0,1,2.45-.94,2.39,2.39,0,0,1,2.14,1.18,5.82,5.82,0,0,1,.82,3.22,9.34,9.34,0,0,1-2.61,6.41c-1.72,1.89-3.38,2.84-4.93,2.84a1.47,1.47,0,0,1-1.31-.9,5.21,5.21,0,0,1-.57-2.58,12.08,12.08,0,0,1,1.31-5.35A13.37,13.37,0,0,1,211.47,20.09Z"/><path class="cls-1" d="M230.58,30.13h0a3.11,3.11,0,0,0-2.12-.66,7.79,7.79,0,0,0-2.67.36,1.7,1.7,0,0,0-1.2,1.22,11.33,11.33,0,0,0-.11,1.79c0,1.49.23,2.37.71,2.77a3.14,3.14,0,0,0,2,.55,3.74,3.74,0,0,0,2.1-1,6.12,6.12,0,0,0,1.63-1.61,3.77,3.77,0,0,0,.4-1.91A2,2,0,0,0,230.58,30.13Z"/></g></g></svg>