<svg xmlns="http://www.w3.org/2000/svg" viewBox="0 0 302.19 74.72"><defs><style>.cls-1{fill:#fff;stroke:#fff;stroke-miterlimit:10;}</style></defs><g id="圖層_2" data-name="圖層 2"><g id="從選取範圍_影像" data-name="從選取範圍 影像"><path class="cls-1" d="M93.71,17.74h0a2.94,2.94,0,0,0-3.82.05,2.25,2.25,0,0,0-1.07,1.83,81.24,81.24,0,0,1-1,12.29c-.66,4.27-1.47,7.27-2.42,8.91s-2,2.36-3.26,2.36c-1.69,0-3.65-1.14-5.82-3.38a3.55,3.55,0,0,0-2.43-1.26,3.29,3.29,0,0,0-2.19.71,2.44,2.44,0,0,0-.86,1.94c0,1.36,1.25,2.88,3.81,4.65a13,13,0,0,0,7.43,2.59,8.62,8.62,0,0,0,7.58-4.16c1.77-2.7,3-6.79,3.78-12.17a100.24,100.24,0,0,0,1.1-12.72A2.1,2.1,0,0,0,93.71,17.74Z"/><path class="cls-1" d="M117.14,44.87h0c-.65-.3-.77-.48-.79-.52a10.37,10.37,0,0,1-.49-1.32,12.25,12.25,0,0,1-.34-3.52,36.59,36.59,0,0,1,.8-6.56,18.21,18.21,0,0,0,.45-3.14c0-.94-.42-2-2.42-2.13a3.42,3.42,0,0,0-3.49-2.49c-3.33,0-6.65,2.08-9.89,6.18s-4.83,8-4.83,11.61a5.59,5.59,0,0,0,1.4,3.9,4.47,4.47,0,0,0,3.4,1.55c3.18,0,6.49-2.11,9.85-6.27,0,2.9.45,4.84,1.48,5.92a3.08,3.08,0,0,0,2.32,1,4.29,4.29,0,0,0,2.37-.74,2.37,2.37,0,0,0,1.2-2A1.51,1.51,0,0,0,117.14,44.87Zm-15-1.55c-.16,0-.32-.4-.32-1.29,0-2,1.07-4.51,3.18-7.44,2.61-3.6,4.16-4.36,5-4.36a.94.94,0,0,1,.73.45,2.23,2.23,0,0,1,.38,1.39c0,2-1.14,4.42-3.39,7.16S103.56,43.32,102.1,43.32Z"/><path class="cls-1" d="M136.57,40.92a5.08,5.08,0,0,0-2.67,1.18,11.16,11.16,0,0,1-6.34,2.23c-1.77,0-2.59-.75-2.59-2.36a16,16,0,0,1,2.54-7.66c2.15-3.74,3.33-4.3,3.84-4.3.19,0,.47.43.62,1.66.3,2.5,1.61,3,2.65,3a2.46,2.46,0,0,0,1.63-.77,3.87,3.87,0,0,0,.83-2.88,7.13,7.13,0,0,0-1.42-4.17,4.29,4.29,0,0,0-3.57-2.06c-2.76,0-5.59,2-8.4,6.06s-4.2,7.75-4.2,11.2a7.39,7.39,0,0,0,1.83,5.3,7,7,0,0,0,5.33,1.92,13.28,13.28,0,0,0,7.68-2.55C136.83,45,138,43.57,138,42.4A1.34,1.34,0,0,0,136.57,40.92Z"/><path class="cls-1" d="M160.51,44.87h0c-.65-.3-.77-.48-.79-.52a10.37,10.37,0,0,1-.49-1.32,12.63,12.63,0,0,1-.34-3.52,36.59,36.59,0,0,1,.8-6.56,18.21,18.21,0,0,0,.45-3.14c0-.94-.42-2-2.42-2.13a3.42,3.42,0,0,0-3.49-2.49c-3.33,0-6.65,2.08-9.88,6.18s-4.84,8-4.84,11.61a5.59,5.59,0,0,0,1.4,3.9,4.47,4.47,0,0,0,3.4,1.55c3.18,0,6.49-2.11,9.85-6.27,0,2.9.46,4.84,1.48,5.92A3.08,3.08,0,0,0,158,49a4.27,4.27,0,0,0,2.37-.74,2.38,2.38,0,0,0,1.21-2A1.53,1.53,0,0,0,160.51,44.87Zm-15-1.55c-.16,0-.32-.4-.32-1.29,0-2,1.07-4.51,3.18-7.44,2.61-3.6,4.16-4.36,5-4.36a.94.94,0,0,1,.72.45,2.23,2.23,0,0,1,.38,1.39c0,2-1.14,4.42-3.39,7.16S146.93,43.32,145.47,43.32Z"/><path class="cls-1" d="M175,27.29a23.5,23.5,0,0,0-4.59,4.28c.69-3.44,1.29-6.09,1.8-7.9a42.21,42.21,0,0,0,1.66-8.39c0-2.71-1.1-3.28-2-3.28a3.38,3.38,0,0,0-3.33,2.36c-.59,1.47-1.51,6-2.83,13.82l-1.36,8.35a43.46,43.46,0,0,0-.63,5.26,2.68,2.68,0,0,0,.68,1.93l.47.54s.14.19.21.79a3.43,3.43,0,0,0,1.74,2.5,5.91,5.91,0,0,0,3.2.94c3.67,0,7.17-1.88,10.41-5.59A18,18,0,0,0,185.31,31,6.45,6.45,0,0,0,184,26.93C182,24.39,178.79,24.68,175,27.29Zm4.88,4.76a11.54,11.54,0,0,1-1.66,5.09,14.46,14.46,0,0,1-3.91,4.79,6.94,6.94,0,0,1-4,1.68c-.54,0-1.05-.39-1.53-1.15,0-2,1.36-4.49,3.91-7.48s4.9-4.57,6.92-4.57C179.66,30.41,179.92,30.58,179.92,32.05Z"/><path class="cls-1" d="M204.05,39.17a2.49,2.49,0,0,0-1.76.92c-2.58,2.69-5.19,4.06-7.78,4.06a2.67,2.67,0,0,1-2-.77,2.26,2.26,0,0,1-.76-1.59c0-.19.06-.31.33-.37a18.75,18.75,0,0,0,8.8-4.48c2.31-2.18,3.48-4.52,3.48-6.95a5.15,5.15,0,0,0-5.36-5.2c-3.13,0-6.1,1.7-8.82,5.07a17,17,0,0,0-4.08,10.82,9,9,0,0,0,2.06,6.23,7.27,7.27,0,0,0,5.63,2.26,12.59,12.59,0,0,0,8.2-3c2.46-2,3.66-3.77,3.66-5.3C205.62,39.78,205.06,39.17,204.05,39.17Zm-5.61-9.56a.82.82,0,0,1,.68.32,1.38,1.38,0,0,1,.29.89c0,1-.78,2.19-2.3,3.49a11.87,11.87,0,0,1-4.88,2.52,13.27,13.27,0,0,1,2.6-4.77C196.17,30.43,197.39,29.61,198.44,29.61Z"/><path class="cls-1" d="M243.88,31c-.39,0-1.13.07-2.24.2a15.35,15.35,0,0,1-6.21-.23,8.88,8.88,0,0,0-2-.44,2.56,2.56,0,0,0-2.28,2.36,2.77,2.77,0,0,0,.74,2,4.17,4.17,0,0,0,2.7.91l.31,0A12.3,12.3,0,0,1,232.21,40a23.57,23.57,0,0,1-2.9-3.29c-1.71-2.21-2.07-3.17-2.07-3.59,0-.27.27-.53.51-.7,3.61-2.78,5.44-5.66,5.44-8.56a7.31,7.31,0,0,0-1.62-4.67,5.43,5.43,0,0,0-4.45-2.07,7.19,7.19,0,0,0-5.56,2.42,8.68,8.68,0,0,0-2.19,6.05,15.08,15.08,0,0,0,1,5.19,2.12,2.12,0,0,1,.16.64c0,.06,0,.22-.29.4-4.49,2.84-6.77,6.16-6.77,9.85a7.5,7.5,0,0,0,2.35,5.72,8.6,8.6,0,0,0,6.09,2.19,16.42,16.42,0,0,0,9.51-3.12,12.63,12.63,0,0,0,7.47,2.61,4.37,4.37,0,0,0,3.26-1.35,3.72,3.72,0,0,0,1.3-2.4c0-1.72-1-2-1.57-2a1.59,1.59,0,0,0-.55.09,5.53,5.53,0,0,1-1.79.4,6.91,6.91,0,0,1-3.74-1.18,25.37,25.37,0,0,0,4.46-6.28,1.16,1.16,0,0,1,.54-.57,4.85,4.85,0,0,1,1.47-.26c2.93-.22,3.54-1.74,3.54-3C245.82,32,245.57,31,243.88,31Zm-17.2-9.2a1.13,1.13,0,0,1,.93.61,2.86,2.86,0,0,1,.46,1.63c0,1.64-.93,3.27-2.77,4.84a11.2,11.2,0,0,1-.62-3.71,4.4,4.4,0,0,1,.66-2.43A1.67,1.67,0,0,1,226.68,21.78Zm1.19,21.44a8.39,8.39,0,0,1-4.56,1.45,4.72,4.72,0,0,1-3-.84,2.74,2.74,0,0,1-1-2.3c0-2,1.12-3.87,3.33-5.48A36,36,0,0,0,227.87,43.22Z"/><path class="cls-1" d="M269,40.92a5.08,5.08,0,0,0-2.67,1.18,11.13,11.13,0,0,1-6.34,2.23c-1.76,0-2.59-.75-2.59-2.36a16,16,0,0,1,2.54-7.66c2.15-3.74,3.33-4.3,3.84-4.3.19,0,.48.43.63,1.66.29,2.5,1.6,3,2.64,3a2.46,2.46,0,0,0,1.63-.77,3.87,3.87,0,0,0,.83-2.88A7.13,7.13,0,0,0,268,26.87a4.29,4.29,0,0,0-3.56-2.06c-2.77,0-5.6,2-8.41,6.06s-4.2,7.75-4.2,11.2a7.43,7.43,0,0,0,1.83,5.3A7.06,7.06,0,0,0,259,49.29a13.28,13.28,0,0,0,7.68-2.55c2.5-1.75,3.72-3.17,3.72-4.34A1.35,1.35,0,0,0,269,40.92Z"/><path class="cls-1" d="M284.79,25.57c-3.49,0-6.48,1.75-8.91,5.2a18.1,18.1,0,0,0-3.62,10.46,8.18,8.18,0,0,0,2,5.61,6.63,6.63,0,0,0,5.19,2.31,12,12,0,0,0,7.79-3.32,16.55,16.55,0,0,0,5.25-8.13l0-.08a14.18,14.18,0,0,0,.34-3,9.61,9.61,0,0,0-2.22-6.32A7.34,7.34,0,0,0,284.79,25.57Zm-3,6,.12-.08a3.57,3.57,0,0,1,2.45-.94,2.41,2.41,0,0,1,2.14,1.17,5.85,5.85,0,0,1,.82,3.22,9.3,9.3,0,0,1-2.61,6.41c-1.72,1.89-3.38,2.85-4.93,2.85a1.47,1.47,0,0,1-1.31-.9,5.23,5.23,0,0,1-.57-2.59,12,12,0,0,1,1.32-5.35A13.31,13.31,0,0,1,281.82,31.58Z"/><path class="cls-1" d="M300.93,41.63h0a3.11,3.11,0,0,0-2.12-.67,7.52,7.52,0,0,0-2.67.37,1.7,1.7,0,0,0-1.2,1.22,11.28,11.28,0,0,0-.11,1.78c0,1.5.23,2.38.71,2.77a3.08,3.08,0,0,0,2,.56,3.81,3.81,0,0,0,2.1-1,6.12,6.12,0,0,0,1.63-1.61,3.79,3.79,0,0,0,.4-1.92A2,2,0,0,0,300.93,41.63Z"/><path class="cls-1" d="M12.38,72.52a18,18,0,0,1-8.8-7C-1.79,57.71-.07,47.94,8.21,40.08c2.53-2.4,5.53-5.82,8.91-3.41,2.06,1.48,2,5-.44,7.16a31.91,31.91,0,0,0-4.51,4.49C9.37,52,7.44,56,10.36,60.55c2.55,4,8.34,5.9,13.42,4.56a20.92,20.92,0,0,0,9.35-5.61C42.93,49.78,46.32,36.92,50.68,24c-2.75,1.14-4.92,2.14-7.16,2.94a5.36,5.36,0,0,1-6.08-1.54,3.62,3.62,0,0,1-.82-4c.94-2.35,2.92-2.24,5.06-2.39C45,18.75,47.43,16.4,50,14.59c1.73-1.22,3.25-2.75,4.91-4.06S58.4,8.72,60.29,10a4.25,4.25,0,0,1,1.77,5.12c-4.42,13.57-7.5,27.63-15,40.08-5.8,9.68-13.33,17-25,18.92C17.35,74.64,14.7,73.35,12.38,72.52Z"/><path class="cls-1" d="M20,13.1a12.16,12.16,0,0,1,13.86-.86c2.31,1.46,3.44,3.58,2,6.15s-3.5,2.27-5.72.89a5,5,0,0,0-6.47.87c-1.94,2.45-3.22,5.25-1.36,8.2,1.55,2.44,4.59,1.65,6.71.11,2.54-1.84,5.07-3.23,7.18,0s-.06,5.5-2.64,7.2c-5.3,3.46-13.22,3-16.18.28C12,30.91,12.8,18.82,20,13.1Z"/><path class="cls-1" d="M63.4.5c2.5.18,3.85,1.58,3.79,3.93s-1.12,4.42-3.9,4.49a3.63,3.63,0,0,1-4-3.7C59.2,2.58,60.82,1,63.4.5Z"/></g></g></svg>