<?xml version="1.0" encoding="utf-8"?>
<!-- Generator: Adobe Illustrator 25.4.1, SVG Export Plug-In . SVG Version: 6.00 Build 0)  -->
<svg version="1.1" id="圖層_1" xmlns="http://www.w3.org/2000/svg" xmlns:xlink="http://www.w3.org/1999/xlink" x="0px" y="0px"
	 viewBox="0 0 301.2 77.2" style="enable-background:new 0 0 301.2 77.2;" xml:space="preserve">
<style type="text/css">
	.st0{font-family:'STHeitiTC-Light';}
	.st1{font-size:12px;}
</style>
<g id="圖層_2_00000028289583972251310350000005699462938447603638_">
	<g id="圖層_4_影像">
		<path d="M93.2,20L93.2,20c-1.1-0.9-2.7-0.9-3.8,0.1c-0.6,0.4-1,1.1-1.1,1.8c0,4.1-0.4,8.2-1,12.3c-0.7,4.3-1.5,7.3-2.4,8.9
			s-2,2.4-3.3,2.4c-1.7,0-3.7-1.1-5.8-3.4c-0.6-0.7-1.5-1.2-2.4-1.2c-0.8,0-1.6,0.2-2.2,0.7s-0.9,1.2-0.9,1.9c0,1.4,1.2,2.9,3.8,4.7
			c2.2,1.6,4.7,2.5,7.4,2.6c3.1,0.1,6-1.5,7.6-4.2c1.8-2.7,3-6.8,3.8-12.2c0.6-4.2,1-8.5,1.1-12.7C94,21,93.7,20.4,93.2,20z"/>
		<path d="M116.6,47.2L116.6,47.2c-0.7-0.3-0.8-0.5-0.8-0.5c-0.2-0.4-0.4-0.9-0.5-1.3c-0.3-1.1-0.4-2.3-0.3-3.5
			c0.1-2.2,0.3-4.4,0.8-6.6c0.2-1,0.4-2.1,0.4-3.1c0-0.9-0.4-2-2.4-2.1c-0.4-1.5-1.9-2.6-3.5-2.5c-3.3,0-6.7,2.1-9.9,6.2
			s-4.8,8-4.8,11.6c-0.1,1.4,0.4,2.8,1.4,3.9c0.9,1,2.1,1.6,3.4,1.5c3.2,0,6.5-2.1,9.8-6.3c0,2.9,0.4,4.8,1.5,5.9
			c0.6,0.7,1.4,1,2.3,1c0.8,0,1.7-0.3,2.4-0.8c0.7-0.4,1.2-1.2,1.2-2C117.6,48,117.2,47.4,116.6,47.2z M101.6,45.6
			c-0.2,0-0.3-0.4-0.3-1.3c0-2,1.1-4.5,3.2-7.5c2.6-3.6,4.2-4.3,5-4.3c0.3,0,0.6,0.2,0.7,0.5c0.3,0.4,0.4,0.9,0.4,1.4
			c0,2-1.1,4.4-3.4,7.2S103.1,45.6,101.6,45.6L101.6,45.6z"/>
		<path d="M136.1,43.2c-1,0.1-1.9,0.5-2.7,1.2c-1.8,1.4-4,2.2-6.3,2.2c-1.8,0-2.6-0.8-2.6-2.4c0.2-2.7,1-5.4,2.5-7.7
			c2.1-3.7,3.3-4.3,3.8-4.3c0.2,0,0.5,0.4,0.6,1.7c0.3,2.5,1.6,3,2.6,3c0.6,0,1.2-0.3,1.6-0.8c0.7-0.8,1-1.8,0.8-2.9
			c0-1.5-0.5-3-1.4-4.2c-0.8-1.3-2.1-2-3.6-2.1c-2.8,0-5.6,2-8.4,6.1s-4.2,7.8-4.2,11.2c-0.1,1.9,0.5,3.8,1.8,5.3
			c1.4,1.4,3.4,2.1,5.3,1.9c2.8,0,5.5-0.9,7.7-2.6c2.5-1.8,3.7-3.2,3.7-4.3C137.4,43.8,136.8,43.1,136.1,43.2
			C136.2,43.2,136.2,43.2,136.1,43.2z"/>
		<path d="M160,47.2L160,47.2c-0.6-0.3-0.8-0.5-0.8-0.5c-0.2-0.4-0.4-0.9-0.5-1.3c-0.3-1.1-0.4-2.3-0.3-3.5c0.1-2.2,0.3-4.4,0.8-6.6
			c0.2-1,0.4-2.1,0.4-3.1c0-0.9-0.4-2-2.4-2.1c-0.4-1.5-1.9-2.6-3.5-2.5c-3.3,0-6.6,2.1-9.9,6.2s-4.8,8-4.8,11.6
			c0,1.4,0.5,2.8,1.4,3.9c0.9,1,2.1,1.6,3.4,1.5c3.2,0,6.5-2.1,9.9-6.3c0,2.9,0.5,4.8,1.5,5.9c0.6,0.7,1.4,1,2.3,1
			c0.8,0,1.7-0.3,2.4-0.8c0.7-0.4,1.2-1.2,1.2-2C161,48,160.6,47.4,160,47.2z M145,45.6c-0.2,0-0.3-0.4-0.3-1.3c0-2,1.1-4.5,3.2-7.5
			c2.6-3.6,4.2-4.3,5-4.3c0.3,0,0.6,0.2,0.7,0.5c0.3,0.4,0.4,0.9,0.4,1.4c0,2-1.1,4.4-3.4,7.2S146.4,45.6,145,45.6z"/>
		<path d="M174.5,29.6c-1.7,1.2-3.2,2.7-4.5,4.3c0.7-3.4,1.3-6.1,1.8-7.9c0.8-2.7,1.4-5.5,1.7-8.4c0-2.7-1.1-3.3-2-3.3
			c-1.5,0-2.9,0.9-3.3,2.4c-0.6,1.5-1.5,6-2.8,13.8l-1.4,8.3c-0.3,1.7-0.5,3.5-0.6,5.3c0,0.7,0.2,1.4,0.7,1.9l0.5,0.5
			c0.1,0.2,0.2,0.5,0.2,0.8c0.2,1.1,0.8,2,1.7,2.5c1,0.6,2.1,0.9,3.2,0.9c3.7,0,7.2-1.9,10.4-5.6c3-3.2,4.8-7.5,4.9-11.9
			c0-1.4-0.5-2.9-1.3-4C181.5,26.7,178.3,27,174.5,29.6z M179.4,34.3c-0.1,1.8-0.7,3.5-1.7,5.1c-0.9,1.9-2.3,3.5-3.9,4.8
			c-1.1,1-2.5,1.6-4,1.7c-0.5,0-1.1-0.4-1.5-1.2c0-2,1.4-4.5,3.9-7.5s4.9-4.6,6.9-4.6C179.2,32.7,179.4,32.9,179.4,34.3z"/>
		<path d="M203.6,41.5c-0.7,0-1.3,0.4-1.8,0.9c-2.6,2.7-5.2,4.1-7.8,4.1c-0.7,0-1.5-0.2-2-0.8c-0.5-0.4-0.7-1-0.8-1.6
			c0-0.2,0.1-0.3,0.3-0.4c3.3-0.7,6.3-2.2,8.8-4.5c2.3-2.2,3.5-4.5,3.5-7c0-2.8-2.3-5.2-5.1-5.2c-0.1,0-0.2,0-0.3,0
			c-3.1,0-6.1,1.7-8.8,5.1c-2.6,3-4.1,6.9-4.1,10.9c-0.1,2.3,0.6,4.5,2.1,6.2c1.5,1.5,3.5,2.4,5.6,2.3c3,0,5.9-1.1,8.2-3
			c2.5-2,3.7-3.8,3.7-5.3C205.1,42.1,204.6,41.5,203.6,41.5z M197.9,31.9c0.3,0,0.5,0.1,0.7,0.3c0.2,0.3,0.3,0.6,0.3,0.9
			c0,1-0.8,2.2-2.3,3.5c-1.4,1.2-3.1,2.1-4.9,2.5c0.5-1.8,1.4-3.4,2.6-4.8C195.7,32.7,196.9,31.9,197.9,31.9z"/>
		<path d="M243.4,33.3c-0.7,0-1.5,0.1-2.2,0.2c-2.1,0.3-4.2,0.3-6.2-0.2c-0.6-0.2-1.3-0.4-2-0.4c-1.2,0.1-2.2,1.1-2.3,2.4
			c0,0.7,0.2,1.5,0.7,2c0.8,0.6,1.7,0.9,2.7,0.9h0.3c-0.6,1.6-1.5,3-2.6,4.2c-1.1-1-2-2.1-2.9-3.3c-1.7-2.2-2.1-3.2-2.1-3.6
			s0.3-0.5,0.5-0.7c3.6-2.8,5.4-5.6,5.4-8.6c0-1.7-0.6-3.3-1.6-4.7c-1.1-1.4-2.7-2.1-4.4-2.1c-2.1,0-4.2,0.8-5.6,2.4
			c-1.5,1.7-2.3,3.8-2.2,6.1c0,1.8,0.4,3.5,1,5.2c0.1,0.2,0.1,0.4,0.2,0.7c0,0.1,0,0.2-0.3,0.4c-4.5,2.9-6.8,6.2-6.8,9.9
			c-0.1,2.2,0.8,4.2,2.4,5.7c1.7,1.5,3.9,2.3,6.1,2.2c3.4,0,6.7-1.1,9.5-3.1c2.1,1.7,4.8,2.6,7.5,2.6c1.2,0,2.4-0.5,3.3-1.3
			c0.7-0.6,1.2-1.5,1.3-2.4c0-1.7-1-2-1.6-2c-0.2,0-0.4,0-0.6,0.1c-0.6,0.2-1.2,0.4-1.8,0.4c-1.3,0-2.6-0.4-3.8-1.1
			c1.8-1.9,3.3-4,4.5-6.3c0.1-0.2,0.3-0.4,0.5-0.6c0.5-0.2,1-0.2,1.5-0.3c2.9-0.2,3.5-1.7,3.5-3C245.3,34.3,245.1,33.3,243.4,33.3z
			 M226.2,24.1c0.4,0,0.7,0.3,0.9,0.6c0.3,0.5,0.5,1,0.5,1.6c0,1.6-0.9,3.3-2.8,4.9c-0.4-1.2-0.6-2.5-0.6-3.7c0-0.9,0.2-1.7,0.7-2.4
			C225.1,24.5,225.6,24.1,226.2,24.1L226.2,24.1z M227.4,45.5c-1.3,0.9-2.9,1.4-4.6,1.5c-1.1,0.1-2.1-0.2-3-0.8
			c-0.7-0.6-1.1-1.4-1-2.3c0-2,1.1-3.9,3.3-5.5C223.6,41,225.3,43.4,227.4,45.5L227.4,45.5z"/>
		<path d="M268.5,43.2c-1,0.1-1.9,0.5-2.7,1.2c-1.8,1.4-4,2.2-6.3,2.2c-1.8,0-2.6-0.8-2.6-2.4c0.2-2.7,1.1-5.4,2.5-7.7
			c2.1-3.7,3.3-4.3,3.8-4.3c0.2,0,0.5,0.4,0.6,1.7c0.3,2.5,1.6,3,2.6,3c0.6,0,1.2-0.3,1.6-0.8c0.7-0.8,1-1.8,0.8-2.9
			c0-1.5-0.5-3-1.4-4.2c-0.8-1.2-2.1-2-3.5-2c-2.8,0-5.6,2-8.4,6.1s-4.2,7.8-4.2,11.2c-0.1,1.9,0.5,3.8,1.8,5.3
			c1.4,1.4,3.4,2.1,5.3,1.9c2.8,0,5.4-0.9,7.7-2.6c2.5-1.8,3.7-3.2,3.7-4.3c0.1-0.7-0.5-1.4-1.2-1.4H268.5z"/>
		<path d="M284.3,27.9c-3.5,0-6.5,1.7-8.9,5.2c-2.3,3-3.5,6.7-3.6,10.5c-0.1,2.1,0.7,4.1,2,5.6s3.2,2.4,5.2,2.3
			c2.9-0.1,5.7-1.3,7.8-3.3c2.5-2.1,4.3-5,5.2-8.1V40c0.2-1,0.3-2,0.3-3c0-2.3-0.7-4.5-2.2-6.3C288.7,28.8,286.6,27.8,284.3,27.9z
			 M281.3,33.9l0.1-0.1c0.7-0.6,1.5-0.9,2.5-0.9c0.9,0,1.7,0.4,2.1,1.2c0.6,1,0.9,2.1,0.8,3.2c0,2.4-1,4.7-2.6,6.4
			c-1.7,1.9-3.4,2.8-4.9,2.8c-0.6,0-1.1-0.4-1.3-0.9c-0.4-0.8-0.6-1.7-0.6-2.6c0-1.9,0.5-3.7,1.3-5.3
			C279.4,36.2,280.2,35,281.3,33.9L281.3,33.9z"/>
		<path d="M300.4,43.9L300.4,43.9c-0.6-0.5-1.4-0.7-2.1-0.7c-0.9,0-1.8,0.1-2.7,0.4c-0.6,0.2-1.1,0.6-1.2,1.2
			c-0.1,0.6-0.1,1.2-0.1,1.8c0,1.5,0.2,2.4,0.7,2.8c0.6,0.4,1.3,0.6,2,0.6c0.8-0.1,1.5-0.5,2.1-1c0.6-0.4,1.2-1,1.6-1.6
			c0.3-0.6,0.4-1.2,0.4-1.9C301.2,44.8,300.9,44.3,300.4,43.9z"/>
		<text transform="matrix(1 0 0 1 123.03 73.72)" class="st0 st1">ＦＲＡＧＲＡＮＣＥ</text>
	</g>
	<g id="從選取範圍_影像">
		<path d="M11.9,72c-3.6-1.3-6.7-3.8-8.8-7c-5.4-7.8-3.6-17.6,4.6-25.4c2.5-2.4,5.5-5.8,8.9-3.4c2.1,1.5,2,5-0.4,7.2
			c-1.7,1.3-3.2,2.8-4.5,4.5C8.9,51.6,7,55.6,9.9,60.1c2.6,4,8.3,5.9,13.4,4.6c3.6-1,6.8-2.9,9.4-5.6c9.8-9.7,13.2-22.6,17.5-35.5
			c-2.8,1.1-4.9,2.1-7.2,3c-2.1,0.8-4.6,0.2-6.1-1.5c-1.1-1-1.4-2.6-0.8-4c0.9-2.3,2.9-2.2,5.1-2.4c3.3-0.2,5.8-2.6,8.3-4.4
			c1.7-1.2,3.2-2.8,4.9-4.1s3.5-1.8,5.4-0.6c1.7,1.1,2.5,3.2,1.8,5.1c-4.4,13.6-7.5,27.6-15,40.1c-5.8,9.7-13.3,17-25,18.9
			C16.9,74.1,14.2,72.8,11.9,72z"/>
		<path d="M19.5,12.6c4-3.2,9.5-3.5,13.9-0.9c2.3,1.5,3.4,3.6,2,6.2s-3.5,2.3-5.7,0.9c-2.1-1.4-4.8-1-6.5,0.9
			c-1.9,2.4-3.2,5.2-1.4,8.2c1.5,2.4,4.6,1.6,6.7,0.1c2.5-1.8,5.1-3.2,7.2,0s-0.1,5.5-2.6,7.2c-5.3,3.5-13.2,3-16.2,0.3
			C11.5,30.4,12.3,18.3,19.5,12.6z"/>
		<path d="M62.9,0c2.5,0.2,3.8,1.6,3.8,3.9s-1.1,4.4-3.9,4.5c-2,0.2-3.8-1.2-4-3.2c0-0.2,0-0.3,0-0.5C58.7,2.1,60.3,0.5,62.9,0z"/>
	</g>
</g>
</svg>
