<?xml version="1.0" encoding="utf-8"?>
<!-- Generator: Adobe Illustrator 25.4.1, SVG Export Plug-In . SVG Version: 6.00 Build 0)  -->
<svg version="1.1" id="圖層_1" xmlns="http://www.w3.org/2000/svg" xmlns:xlink="http://www.w3.org/1999/xlink" x="0px" y="0px"
	 viewBox="0 0 301.2 77.2" style="enable-background:new 0 0 301.2 77.2;" xml:space="preserve">
<style type="text/css">
	.st0{fill:#FFFFFF;}
</style>
<g id="圖層_2_00000128449512613689584800000006578289851288524222_">
	<g id="圖層_4_影像_00000052810887803543098910000016536329426843250862_">
		<path class="st0" d="M83.5,122.6L83.5,122.6c-1.1-0.9-2.7-0.9-3.8,0.1c-0.6,0.4-1,1.1-1.1,1.8c0,4.1-0.4,8.2-1,12.3
			c-0.7,4.3-1.5,7.3-2.4,8.9c-0.9,1.6-2,2.4-3.3,2.4c-1.7,0-3.7-1.1-5.8-3.4c-0.6-0.7-1.5-1.2-2.4-1.2c-0.8,0-1.6,0.2-2.2,0.7
			c-0.6,0.5-0.9,1.2-0.9,1.9c0,1.4,1.2,2.9,3.8,4.7c2.2,1.6,4.7,2.5,7.4,2.6c3.1,0.1,6-1.5,7.6-4.2c1.8-2.7,3-6.8,3.8-12.2
			c0.6-4.2,1-8.5,1.1-12.7C84.4,123.6,84.1,123,83.5,122.6z"/>
		<path class="st0" d="M107,149.8L107,149.8c-0.7-0.3-0.8-0.5-0.8-0.5c-0.2-0.4-0.4-0.9-0.5-1.3c-0.3-1.1-0.4-2.3-0.3-3.5
			c0.1-2.2,0.3-4.4,0.8-6.6c0.2-1,0.4-2.1,0.4-3.1c0-0.9-0.4-2-2.4-2.1c-0.4-1.5-1.9-2.6-3.5-2.5c-3.3,0-6.7,2.1-9.9,6.2
			c-3.2,4.1-4.8,8-4.8,11.6c-0.1,1.4,0.4,2.8,1.4,3.9c0.9,1,2.1,1.6,3.4,1.6c3.2,0,6.5-2.1,9.8-6.3c0,2.9,0.4,4.8,1.5,5.9
			c0.6,0.7,1.4,1,2.3,1c0.8,0,1.7-0.3,2.4-0.8c0.7-0.4,1.2-1.2,1.2-2C108,150.6,107.6,150,107,149.8z M92,148.2
			c-0.2,0-0.3-0.4-0.3-1.3c0-2,1.1-4.5,3.2-7.4c2.6-3.6,4.2-4.4,5-4.4c0.3,0,0.6,0.2,0.7,0.5c0.3,0.4,0.4,0.9,0.4,1.4
			c0,2-1.1,4.4-3.4,7.2S93.4,148.2,92,148.2L92,148.2z"/>
		<path class="st0" d="M126.4,145.8c-1,0.1-1.9,0.5-2.7,1.2c-1.8,1.4-4,2.2-6.3,2.2c-1.8,0-2.6-0.8-2.6-2.4c0.2-2.7,1-5.4,2.5-7.7
			c2.1-3.7,3.3-4.3,3.8-4.3c0.2,0,0.5,0.4,0.6,1.7c0.3,2.5,1.6,3,2.6,3c0.6,0,1.2-0.3,1.6-0.8c0.7-0.8,1-1.8,0.8-2.9
			c0-1.5-0.5-3-1.4-4.2c-0.8-1.3-2.1-2-3.6-2.1c-2.8,0-5.6,2-8.4,6.1s-4.2,7.8-4.2,11.2c-0.1,1.9,0.5,3.8,1.8,5.3
			c1.4,1.4,3.4,2.1,5.3,1.9c2.8,0,5.5-0.9,7.7-2.6c2.5-1.8,3.7-3.2,3.7-4.3c0.1-0.7-0.5-1.4-1.2-1.4
			C126.6,145.8,126.5,145.8,126.4,145.8z"/>
		<path class="st0" d="M150.3,149.8L150.3,149.8c-0.6-0.3-0.8-0.5-0.8-0.5c-0.2-0.4-0.4-0.9-0.5-1.3c-0.3-1.1-0.4-2.3-0.3-3.5
			c0.1-2.2,0.3-4.4,0.8-6.6c0.2-1,0.4-2.1,0.4-3.1c0-0.9-0.4-2-2.4-2.1c-0.4-1.5-1.9-2.6-3.5-2.5c-3.3,0-6.6,2.1-9.9,6.2
			c-3.2,4.1-4.8,8-4.8,11.6c0,1.4,0.5,2.8,1.4,3.9c0.9,1,2.1,1.6,3.4,1.5c3.2,0,6.5-2.1,9.9-6.3c0,2.9,0.5,4.8,1.5,5.9
			c0.6,0.7,1.4,1,2.3,1c0.8,0,1.7-0.3,2.4-0.8c0.7-0.4,1.2-1.2,1.2-2C151.4,150.6,151,150,150.3,149.8z M135.3,148.2
			c-0.2,0-0.3-0.4-0.3-1.3c0-2,1.1-4.5,3.2-7.4c2.6-3.6,4.2-4.4,5-4.4c0.3,0,0.6,0.2,0.7,0.5c0.3,0.4,0.4,0.9,0.4,1.4
			c0,2-1.1,4.4-3.4,7.2S136.8,148.2,135.3,148.2z"/>
		<path class="st0" d="M164.9,132.2c-1.7,1.2-3.2,2.7-4.5,4.3c0.7-3.4,1.3-6.1,1.8-7.9c0.8-2.7,1.4-5.5,1.7-8.4c0-2.7-1.1-3.3-2-3.3
			c-1.5,0-2.9,0.9-3.3,2.4c-0.6,1.5-1.5,6-2.8,13.8l-1.4,8.4c-0.3,1.7-0.5,3.5-0.6,5.3c0,0.7,0.2,1.4,0.7,1.9l0.5,0.5
			c0.1,0.2,0.2,0.5,0.2,0.8c0.2,1.1,0.8,2,1.7,2.5c1,0.6,2.1,0.9,3.2,0.9c3.7,0,7.2-1.9,10.4-5.6c3-3.2,4.8-7.5,4.9-11.9
			c0-1.4-0.5-2.9-1.3-4C171.8,129.3,168.6,129.6,164.9,132.2z M169.7,136.9c-0.1,1.8-0.7,3.5-1.7,5.1c-0.9,1.9-2.3,3.5-3.9,4.8
			c-1.1,1-2.5,1.6-4,1.7c-0.5,0-1.1-0.4-1.5-1.2c0-2,1.4-4.5,3.9-7.5c2.6-3,4.9-4.6,6.9-4.6C169.5,135.3,169.7,135.5,169.7,136.9z"
			/>
		<path class="st0" d="M193.9,144c-0.7,0-1.3,0.4-1.8,0.9c-2.6,2.7-5.2,4.1-7.8,4.1c-0.7,0-1.5-0.2-2-0.8c-0.5-0.4-0.7-1-0.8-1.6
			c0-0.2,0.1-0.3,0.3-0.4c3.3-0.7,6.3-2.2,8.8-4.5c2.3-2.2,3.5-4.5,3.5-7c0-2.8-2.3-5.2-5.1-5.2c-0.1,0-0.2,0-0.3,0
			c-3.1,0-6.1,1.7-8.8,5.1c-2.6,3-4.1,6.9-4.1,10.9c-0.1,2.3,0.6,4.5,2.1,6.2c1.5,1.5,3.5,2.4,5.6,2.3c3,0,5.9-1.1,8.2-3
			c2.5-2,3.7-3.8,3.7-5.3C195.4,144.7,194.9,144,193.9,144z M188.3,134.5c0.3,0,0.5,0.1,0.7,0.3c0.2,0.3,0.3,0.6,0.3,0.9
			c0,1-0.8,2.2-2.3,3.5c-1.4,1.2-3.1,2.1-4.9,2.5c0.5-1.8,1.4-3.4,2.6-4.8C186,135.3,187.2,134.5,188.3,134.5z"/>
		<path class="st0" d="M233.7,135.9c-0.7,0-1.5,0.1-2.2,0.2c-2.1,0.3-4.2,0.3-6.2-0.2c-0.6-0.2-1.3-0.4-2-0.4
			c-1.2,0.1-2.2,1.1-2.3,2.4c0,0.7,0.2,1.5,0.7,2c0.8,0.6,1.7,0.9,2.7,0.9h0.3c-0.6,1.6-1.5,3-2.6,4.2c-1.1-1-2-2.1-2.9-3.3
			c-1.7-2.2-2.1-3.2-2.1-3.6c0-0.4,0.3-0.5,0.5-0.7c3.6-2.8,5.4-5.6,5.4-8.6c0-1.7-0.6-3.3-1.6-4.7c-1.1-1.4-2.7-2.1-4.4-2.1
			c-2.1,0-4.2,0.8-5.6,2.4c-1.5,1.7-2.3,3.8-2.2,6.1c0,1.8,0.4,3.5,1,5.2c0.1,0.2,0.1,0.4,0.2,0.7c0,0.1,0,0.2-0.3,0.4
			c-4.5,2.9-6.8,6.2-6.8,9.9c-0.1,2.2,0.8,4.2,2.4,5.7c1.7,1.5,3.9,2.3,6.1,2.2c3.4,0,6.7-1.1,9.5-3.1c2.1,1.7,4.8,2.6,7.5,2.6
			c1.2,0,2.4-0.5,3.3-1.3c0.7-0.6,1.2-1.5,1.3-2.4c0-1.7-1-2-1.6-2c-0.2,0-0.4,0-0.6,0.1c-0.6,0.2-1.2,0.4-1.8,0.4
			c-1.3,0-2.6-0.4-3.8-1.1c1.8-1.9,3.3-4,4.5-6.3c0.1-0.2,0.3-0.4,0.5-0.6c0.5-0.2,1-0.2,1.5-0.3c2.9-0.2,3.5-1.7,3.5-3
			C235.6,136.9,235.4,135.9,233.7,135.9z M216.5,126.7c0.4,0,0.7,0.3,0.9,0.6c0.3,0.5,0.5,1,0.5,1.6c0,1.6-0.9,3.3-2.8,4.8
			c-0.4-1.2-0.6-2.5-0.6-3.7c0-0.9,0.2-1.7,0.7-2.4C215.4,127.1,215.9,126.7,216.5,126.7L216.5,126.7z M217.7,148.1
			c-1.3,0.9-2.9,1.4-4.6,1.5c-1.1,0.1-2.1-0.2-3-0.8c-0.7-0.6-1.1-1.4-1-2.3c0-2,1.1-3.9,3.3-5.5
			C213.9,143.5,215.7,145.9,217.7,148.1L217.7,148.1z"/>
		<path class="st0" d="M258.8,145.8c-1,0.1-1.9,0.5-2.7,1.2c-1.8,1.4-4,2.2-6.3,2.2c-1.8,0-2.6-0.8-2.6-2.4c0.2-2.7,1.1-5.4,2.5-7.7
			c2.1-3.7,3.3-4.3,3.8-4.3c0.2,0,0.5,0.4,0.6,1.7c0.3,2.5,1.6,3,2.6,3c0.6,0,1.2-0.3,1.6-0.8c0.7-0.8,1-1.8,0.8-2.9
			c0-1.5-0.5-3-1.4-4.2c-0.8-1.2-2.1-2-3.5-2c-2.8,0-5.6,2-8.4,6.1c-2.8,4.1-4.2,7.8-4.2,11.2c-0.1,1.9,0.5,3.8,1.8,5.3
			c1.4,1.4,3.4,2.1,5.3,1.9c2.8,0,5.4-0.9,7.7-2.6c2.5-1.8,3.7-3.2,3.7-4.3c0.1-0.7-0.5-1.4-1.2-1.4
			C258.9,145.8,258.9,145.8,258.8,145.8z"/>
		<path class="st0" d="M274.6,130.5c-3.5,0-6.5,1.7-8.9,5.2c-2.3,3-3.5,6.7-3.6,10.5c-0.1,2.1,0.7,4.1,2,5.6s3.2,2.4,5.2,2.3
			c2.9-0.1,5.7-1.3,7.8-3.3c2.5-2.1,4.3-5,5.2-8.1v-0.1c0.2-1,0.3-2,0.3-3c0-2.3-0.7-4.5-2.2-6.3C279,131.4,276.9,130.4,274.6,130.5
			z M271.6,136.5l0.1-0.1c0.7-0.6,1.5-0.9,2.5-0.9c0.9,0,1.7,0.4,2.1,1.2c0.6,1,0.9,2.1,0.8,3.2c0,2.4-1,4.7-2.6,6.4
			c-1.7,1.9-3.4,2.8-4.9,2.8c-0.6,0-1.1-0.4-1.3-0.9c-0.4-0.8-0.6-1.7-0.6-2.6c0-1.9,0.5-3.7,1.3-5.4
			C269.7,138.8,270.6,137.6,271.6,136.5L271.6,136.5z"/>
		<path class="st0" d="M290.8,146.5L290.8,146.5c-0.6-0.5-1.4-0.7-2.1-0.7c-0.9,0-1.8,0.1-2.7,0.4c-0.6,0.2-1.1,0.6-1.2,1.2
			c-0.1,0.6-0.1,1.2-0.1,1.8c0,1.5,0.2,2.4,0.7,2.8c0.6,0.4,1.3,0.6,2,0.6c0.8-0.1,1.5-0.5,2.1-1c0.6-0.4,1.2-1,1.6-1.6
			c0.3-0.6,0.4-1.2,0.4-1.9C291.5,147.4,291.2,146.9,290.8,146.5z"/>
		<text transform="matrix(1 0 0 1 113.3648 176.2857)" class="st0" style="font-family:'STHeitiTC-Light'; font-size:12px;">ＦＲＡＧＲＡＮＣＥ</text>
	</g>
	<g id="從選取範圍_影像_00000083784894838365710270000006376351722412007358_">
		<path class="st0" d="M2.2,174.6c-3.6-1.3-6.7-3.8-8.8-7c-5.4-7.8-3.7-17.6,4.6-25.4c2.5-2.4,5.5-5.8,8.9-3.4c2.1,1.5,2,5-0.4,7.2
			c-1.7,1.3-3.2,2.8-4.5,4.5c-2.8,3.7-4.7,7.7-1.8,12.2c2.6,4,8.3,5.9,13.4,4.6c3.6-1,6.8-2.9,9.4-5.6c9.8-9.7,13.2-22.6,17.6-35.5
			c-2.8,1.1-4.9,2.1-7.2,2.9c-2.1,0.8-4.6,0.2-6.1-1.5c-1.1-1-1.4-2.6-0.8-4c0.9-2.3,2.9-2.2,5.1-2.4c3.3-0.2,5.8-2.6,8.3-4.4
			c1.7-1.2,3.2-2.8,4.9-4.1s3.5-1.8,5.4-0.6c1.7,1.1,2.5,3.2,1.8,5.1c-4.4,13.6-7.5,27.6-15,40.1c-5.8,9.7-13.3,17-25,18.9
			C7.2,176.7,4.5,175.4,2.2,174.6z"/>
		<path class="st0" d="M9.8,115.2c4-3.2,9.5-3.5,13.9-0.9c2.3,1.5,3.4,3.6,2,6.1s-3.5,2.3-5.7,0.9c-2.1-1.4-4.8-1-6.5,0.9
			c-1.9,2.4-3.2,5.2-1.4,8.2c1.5,2.4,4.6,1.6,6.7,0.1c2.5-1.8,5.1-3.2,7.2,0c2.1,3.2-0.1,5.5-2.6,7.2c-5.3,3.5-13.2,3-16.2,0.3
			C1.8,133,2.6,120.9,9.8,115.2z"/>
		<path class="st0" d="M53.2,102.6c2.5,0.2,3.8,1.6,3.8,3.9c-0.1,2.4-1.1,4.4-3.9,4.5c-2,0.2-3.8-1.2-4-3.2c0-0.2,0-0.3,0-0.5
			C49,104.7,50.6,103.1,53.2,102.6z"/>
	</g>
</g>
</svg>
