<svg xmlns="http://www.w3.org/2000/svg" viewBox="0 0 161.97 161.97"><defs><style>.cls-1{fill:none;}</style></defs><g id="圖層_2" data-name="圖層 2"><g id="從選取範圍_影像" data-name="從選取範圍 影像"><path d="M105.72,37.84c-1.77-1.17-3.48-.7-5,.52s-3,2.66-4.6,3.8c-2.42,1.7-4.7,3.89-7.8,4.1-2,.13-3.85,0-4.73,2.23a3.39,3.39,0,0,0,.76,3.77A5,5,0,0,0,90,53.71C92.12,53,94.16,52,96.73,51c-4.08,12.1-7.25,24.13-16.42,33.21a19.44,19.44,0,0,1-8.74,5.25C66.81,90.67,61.4,88.87,59,85.15c-2.73-4.27-.93-8,1.69-11.44a29.32,29.32,0,0,1,4.21-4.2c2.27-2.05,2.35-5.32.41-6.7-3.16-2.26-6,.95-8.33,3.19-7.74,7.36-9.35,16.49-4.32,23.85a16.93,16.93,0,0,0,8.22,6.5c2.17.77,4.65,2,9.1,1.46,10.91-1.76,18-8.64,23.38-17.69,7-11.64,9.86-24.8,14-37.5A4,4,0,0,0,105.72,37.84Z"/><path d="M80.66,61.83c2.42-1.59,4.44-3.77,2.48-6.73s-4.35-1.69-6.72,0c-2,1.44-4.83,2.17-6.27-.11-1.74-2.76-.54-5.38,1.27-7.67a4.64,4.64,0,0,1,6-.81c2.08,1.28,4,1.44,5.36-.84S83.16,41.33,81,40a11.39,11.39,0,0,0-13,.81c-6.74,5.35-7.51,16.66-2.49,21.32C68.31,64.67,75.72,65.06,80.66,61.83Z"/><path d="M108.52,36.86c2.61-.07,3.6-1.94,3.65-4.21s-1.2-3.5-3.54-3.67c-2.42.45-3.93,1.95-3.86,4.42A3.39,3.39,0,0,0,108.52,36.86Z"/><path d="M34.51,127.41a5.54,5.54,0,0,1-3.14-1.1c-1-.72-1.57-1.34-1.57-1.83a.79.79,0,0,1,.28-.64,1.17,1.17,0,0,1,.78-.24,1.29,1.29,0,0,1,.87.47,4.27,4.27,0,0,0,2.81,1.6,2,2,0,0,0,1.72-1.21,13,13,0,0,0,1.11-4.07,36.2,36.2,0,0,0,.45-5.53.7.7,0,0,1,.35-.57,1.25,1.25,0,0,1,.73-.27.94.94,0,0,1,.6.23.64.64,0,0,1,.27.5,43.21,43.21,0,0,1-.49,5.63,13.26,13.26,0,0,1-1.63,5.31A3.58,3.58,0,0,1,34.51,127.41Z"/><path d="M49,127.68a1.08,1.08,0,0,1-.82-.33,3.58,3.58,0,0,1-.58-2.43v-.87l-.54.68c-1.44,1.78-2.84,2.68-4.16,2.68a1.7,1.7,0,0,1-1.3-.6,2.19,2.19,0,0,1-.55-1.53,8.34,8.34,0,0,1,2.1-5c1.38-1.75,2.78-2.64,4.17-2.64a1.25,1.25,0,0,1,1.28.91l.07.19h.2c.7,0,.79.37.79.65a8.2,8.2,0,0,1-.2,1.34,16.68,16.68,0,0,0-.36,3,5.81,5.81,0,0,0,.17,1.67,5,5,0,0,0,.23.62,1,1,0,0,0,.5.37c.28.14.28.3.28.36a.75.75,0,0,1-.4.64A1.57,1.57,0,0,1,49,127.68ZM47,119.29c-.66,0-1.47.68-2.48,2.07a6.39,6.39,0,0,0-1.47,3.5c0,.21,0,.87.44.87.76,0,1.65-.63,2.72-1.93a5.72,5.72,0,0,0,1.58-3.39,1.25,1.25,0,0,0-.23-.8A.71.71,0,0,0,47,119.29Z"/><path d="M54.39,127.79a2.86,2.86,0,0,1-2.16-.76,3,3,0,0,1-.74-2.16,8.67,8.67,0,0,1,1.82-4.82c1.2-1.71,2.38-2.58,3.51-2.58a1.61,1.61,0,0,1,1.34.79,2.85,2.85,0,0,1,.58,1.69,1.49,1.49,0,0,1-.28,1.07.8.8,0,0,1-.52.26c-.18,0-.75,0-.88-1.08,0-.25-.12-1-.57-1s-1.18.68-2,2.07a7.48,7.48,0,0,0-1.17,3.57c0,.62.25,1.35,1.45,1.35a5.28,5.28,0,0,0,3-1.05,2,2,0,0,1,1-.47c.25,0,.35.1.35.36s-.26.8-1.53,1.69A5.6,5.6,0,0,1,54.39,127.79Z"/><path d="M68.35,127.68a1.09,1.09,0,0,1-.82-.33,3.59,3.59,0,0,1-.57-2.43v-.87l-.54.68c-1.44,1.78-2.84,2.68-4.16,2.68a1.68,1.68,0,0,1-1.29-.6,2.14,2.14,0,0,1-.55-1.53,8.38,8.38,0,0,1,2.09-5c1.39-1.75,2.79-2.64,4.18-2.64a1.22,1.22,0,0,1,1.27.91l.07.19h.2c.71,0,.8.37.8.65a8.2,8.2,0,0,1-.2,1.34,16.68,16.68,0,0,0-.36,3,4.39,4.39,0,0,0,.4,2.29,1,1,0,0,0,.5.37c.28.14.28.3.28.36a.77.77,0,0,1-.4.64A1.63,1.63,0,0,1,68.35,127.68Zm-2.06-8.39c-.66,0-1.47.68-2.47,2.07a6.42,6.42,0,0,0-1.48,3.5c0,.21,0,.87.44.87.76,0,1.65-.63,2.72-1.93a5.75,5.75,0,0,0,1.59-3.39,1.31,1.31,0,0,0-.23-.8A.74.74,0,0,0,66.29,119.29Z"/><path d="M73.74,127.43a2.29,2.29,0,0,1-1.26-.37,1.24,1.24,0,0,1-.64-.9.92.92,0,0,0-.17-.51l-.21-.24a.92.92,0,0,1-.22-.66,19.24,19.24,0,0,1,.27-2.3l.61-3.73a46.73,46.73,0,0,1,1.24-6.09,1.22,1.22,0,0,1,1.21-.87c.4,0,.6.39.6,1.16a19.47,19.47,0,0,1-.73,3.67c-.23.81-.5,2-.81,3.54l.53.25a9.81,9.81,0,0,1,2-1.85,4.08,4.08,0,0,1,2.24-.9,1.6,1.6,0,0,1,1.33.67,2.56,2.56,0,0,1,.53,1.62A7.68,7.68,0,0,1,78.16,125,5.92,5.92,0,0,1,73.74,127.43ZM78,119.37c-1,0-2.1.72-3.31,2.14A6.31,6.31,0,0,0,72.9,125v.09l0,.07a1.14,1.14,0,0,0,.94.66,3.35,3.35,0,0,0,2-.81,6.87,6.87,0,0,0,1.82-2.23,5.37,5.37,0,0,0,.78-2.42c0-.59-.09-.9-.28-1l-.07,0Z"/><path d="M84.32,127.74a3,3,0,0,1-2.29-.91,3.74,3.74,0,0,1-.83-2.58A7.25,7.25,0,0,1,83,119.62a4.87,4.87,0,0,1,3.7-2.16,2,2,0,0,1,2.09,2,4,4,0,0,1-1.46,2.89,8,8,0,0,1-3.79,1.92.44.44,0,0,0-.37.46,1.32,1.32,0,0,0,.42.92,1.53,1.53,0,0,0,1.12.43,5.21,5.21,0,0,0,3.69-1.91.82.82,0,0,1,.56-.31c.21,0,.41.05.41.46,0,.58-.52,1.3-1.53,2.13A5.35,5.35,0,0,1,84.32,127.74ZM86.41,119a2.65,2.65,0,0,0-1.84,1.2,6.33,6.33,0,0,0-1.22,2.24l-.14.5.5-.13a5.55,5.55,0,0,0,2.3-1.18,2.58,2.58,0,0,0,1.13-1.79.91.91,0,0,0-.19-.59A.69.69,0,0,0,86.41,119Z"/><path d="M96.88,127.94a3.53,3.53,0,0,1-2.51-.9,3.05,3.05,0,0,1-1-2.33c0-1.54,1-2.93,2.88-4.14a.5.5,0,0,0,.27-.43,1.29,1.29,0,0,0-.09-.39,6.35,6.35,0,0,1-.43-2.21A3.59,3.59,0,0,1,97,115a2.93,2.93,0,0,1,2.26-1,2.13,2.13,0,0,1,1.75.81,3,3,0,0,1,.65,1.9c0,1.19-.77,2.4-2.31,3.58a.7.7,0,0,0-.34.55c0,.22.1.64,1,1.78a10.66,10.66,0,0,0,1.34,1.52l.22.19.2-.22a5.91,5.91,0,0,0,1.24-2l.12-.35-.51,0a1.62,1.62,0,0,1-1-.32,1,1,0,0,1-.24-.69.72.72,0,0,1,.24-.52A.74.74,0,0,1,102,120a3.46,3.46,0,0,1,.83.18,5.12,5.12,0,0,0,1.55.2,11.28,11.28,0,0,0,1.34-.09,9.47,9.47,0,0,1,1-.09c.5,0,.57.23.57.43,0,.63-.43,1-1.31,1a2.29,2.29,0,0,0-.75.14.82.82,0,0,0-.39.39,11,11,0,0,1-1.93,2.72l-.27.27.32.2a3.36,3.36,0,0,0,1.83.57,2.64,2.64,0,0,0,.9-.19.28.28,0,0,1,.14,0c.12,0,.4,0,.4.58a1.4,1.4,0,0,1-.49.86,1.67,1.67,0,0,1-1.24.51,5.31,5.31,0,0,1-3.16-1.11l-.17-.12-.17.12A7.05,7.05,0,0,1,96.88,127.94Zm.14-6a3.38,3.38,0,0,0-1.61,2.69,1.53,1.53,0,0,0,.58,1.26,2.4,2.4,0,0,0,1.51.44,4.06,4.06,0,0,0,2.2-.69l.31-.2-.26-.26A15.68,15.68,0,0,1,97.46,122l-.17-.3Zm2-6.42a1,1,0,0,0-.85.56,2.22,2.22,0,0,0-.34,1.24,5.46,5.46,0,0,0,.29,1.76l.15.41.33-.28a3.21,3.21,0,0,0,1.34-2.39,1.58,1.58,0,0,0-.26-.89A.78.78,0,0,0,99,115.52Z"/><path d="M113.44,127.79a2.84,2.84,0,0,1-2.16-.76,3,3,0,0,1-.74-2.16,8.67,8.67,0,0,1,1.82-4.82c1.2-1.71,2.38-2.58,3.51-2.58a1.62,1.62,0,0,1,1.34.79,2.92,2.92,0,0,1,.58,1.69,1.49,1.49,0,0,1-.28,1.07.8.8,0,0,1-.52.26c-.18,0-.75,0-.88-1.08,0-.44-.17-1-.58-1s-1.17.68-2,2.07a7.4,7.4,0,0,0-1.17,3.57c0,.62.25,1.35,1.45,1.35a5.23,5.23,0,0,0,3-1.05,2.11,2.11,0,0,1,1-.47c.25,0,.36.11.36.36s-.26.8-1.53,1.69A5.6,5.6,0,0,1,113.44,127.79Z"/><path d="M122.56,127.73a2.68,2.68,0,0,1-2.09-.93,3.37,3.37,0,0,1-.83-2.3,7.74,7.74,0,0,1,1.56-4.5,4.51,4.51,0,0,1,3.73-2.19,3,3,0,0,1,2.38,1.09,4,4,0,0,1,.93,2.63,5.61,5.61,0,0,1-.15,1.29,7,7,0,0,1-2.25,3.5A5.07,5.07,0,0,1,122.56,127.73Zm2.19-8.29a1.89,1.89,0,0,0-1.29.49,6.05,6.05,0,0,0-1.27,1.82,5.68,5.68,0,0,0-.62,2.52,2.66,2.66,0,0,0,.29,1.3,1,1,0,0,0,.85.56,3.47,3.47,0,0,0,2.42-1.37,4.45,4.45,0,0,0,1.24-3.06,2.92,2.92,0,0,0-.41-1.6A1.38,1.38,0,0,0,124.75,119.44Z"/><path d="M130.62,127.07a1.07,1.07,0,0,1-.7-.18c-.08-.07-.21-.28-.21-1a4.63,4.63,0,0,1,0-.74c0-.13.14-.24.35-.32a3,3,0,0,1,1.08-.14,1.1,1.1,0,0,1,.75.22.62.62,0,0,1,.24.46,1.41,1.41,0,0,1-.14.7,2.43,2.43,0,0,1-.65.63A1.4,1.4,0,0,1,130.62,127.07Z"/><rect class="cls-1" width="161.97" height="161.97"/></g></g></svg>