<svg xmlns="http://www.w3.org/2000/svg" viewBox="0 0 301.19 73.72"><g id="圖層_2" data-name="圖層 2"><g id="圖層_4_影像" data-name="圖層 4 影像"><path d="M93.21,17.23h0a3,3,0,0,0-3.82.06,2.25,2.25,0,0,0-1.07,1.83,81.34,81.34,0,0,1-1,12.29c-.66,4.26-1.47,7.26-2.42,8.91s-2,2.36-3.26,2.36c-1.69,0-3.65-1.14-5.82-3.38A3.51,3.51,0,0,0,73.4,38a3.29,3.29,0,0,0-2.19.71,2.44,2.44,0,0,0-.86,1.93c0,1.37,1.25,2.89,3.81,4.66a13.11,13.11,0,0,0,7.43,2.58,8.64,8.64,0,0,0,7.58-4.15c1.77-2.7,3-6.8,3.78-12.18a100,100,0,0,0,1.1-12.71A2.12,2.12,0,0,0,93.21,17.23Z"/><path d="M116.64,44.37h0c-.65-.29-.77-.48-.79-.51a11.73,11.73,0,0,1-.49-1.33A12.21,12.21,0,0,1,115,39a36.58,36.58,0,0,1,.8-6.57,18.14,18.14,0,0,0,.45-3.13c0-.94-.42-2-2.42-2.14a3.42,3.42,0,0,0-3.49-2.48c-3.33,0-6.65,2.07-9.89,6.18s-4.83,8-4.83,11.61A5.56,5.56,0,0,0,97,46.37a4.47,4.47,0,0,0,3.4,1.55c3.18,0,6.49-2.1,9.85-6.26,0,2.9.45,4.84,1.48,5.92a3.08,3.08,0,0,0,2.32,1,4.23,4.23,0,0,0,2.37-.75,2.34,2.34,0,0,0,1.2-2A1.51,1.51,0,0,0,116.64,44.37Zm-15-1.55c-.16,0-.32-.4-.32-1.29,0-2,1.07-4.51,3.18-7.44,2.61-3.6,4.16-4.36,5-4.36a.94.94,0,0,1,.73.45,2.2,2.2,0,0,1,.38,1.38c0,2-1.14,4.43-3.39,7.17S103.06,42.82,101.6,42.82Z"/><path d="M136.07,40.42a5,5,0,0,0-2.67,1.17,11.1,11.1,0,0,1-6.34,2.24c-1.77,0-2.59-.75-2.59-2.36A16.06,16.06,0,0,1,127,33.8c2.15-3.73,3.33-4.29,3.84-4.29.19,0,.47.43.62,1.65.3,2.5,1.61,3,2.65,3a2.43,2.43,0,0,0,1.63-.78,3.86,3.86,0,0,0,.83-2.87,7.16,7.16,0,0,0-1.42-4.18,4.32,4.32,0,0,0-3.57-2.06c-2.76,0-5.59,2-8.4,6.07s-4.2,7.75-4.2,11.2a7.35,7.35,0,0,0,1.83,5.29,7,7,0,0,0,5.33,1.93,13.28,13.28,0,0,0,7.68-2.55c2.5-1.75,3.71-3.17,3.71-4.35A1.34,1.34,0,0,0,136.07,40.42Z"/><path d="M160,44.37h0c-.65-.29-.77-.48-.79-.51a11.73,11.73,0,0,1-.49-1.33,12.59,12.59,0,0,1-.34-3.51,36.58,36.58,0,0,1,.8-6.57,18.14,18.14,0,0,0,.45-3.13c0-.94-.42-2-2.42-2.14a3.42,3.42,0,0,0-3.49-2.48c-3.33,0-6.65,2.07-9.88,6.18s-4.84,8-4.84,11.61a5.56,5.56,0,0,0,1.4,3.89,4.47,4.47,0,0,0,3.4,1.55c3.18,0,6.49-2.1,9.85-6.26,0,2.9.46,4.84,1.48,5.92a3.08,3.08,0,0,0,2.32,1,4.2,4.2,0,0,0,2.37-.75,2.35,2.35,0,0,0,1.21-2A1.53,1.53,0,0,0,160,44.37Zm-15-1.55c-.16,0-.32-.4-.32-1.29,0-2,1.07-4.51,3.18-7.44,2.61-3.6,4.16-4.36,5-4.36a.94.94,0,0,1,.72.45,2.2,2.2,0,0,1,.38,1.38c0,2-1.14,4.43-3.39,7.17S146.43,42.82,145,42.82Z"/><path d="M174.54,26.79A23.5,23.5,0,0,0,170,31.07c.69-3.44,1.29-6.09,1.8-7.91a42,42,0,0,0,1.66-8.38c0-2.72-1.1-3.29-2-3.29a3.38,3.38,0,0,0-3.33,2.37c-.59,1.46-1.51,6-2.83,13.81L163.87,36a43.46,43.46,0,0,0-.63,5.26,2.7,2.7,0,0,0,.68,1.93l.47.53a1.67,1.67,0,0,1,.21.79,3.45,3.45,0,0,0,1.74,2.51,5.9,5.9,0,0,0,3.2.93c3.67,0,7.17-1.88,10.41-5.59a17.93,17.93,0,0,0,4.86-11.92,6.4,6.4,0,0,0-1.34-4C181.5,23.89,178.29,24.18,174.54,26.79Zm4.88,4.75a11.53,11.53,0,0,1-1.66,5.1,14.56,14.56,0,0,1-3.91,4.79,6.91,6.91,0,0,1-4,1.67c-.54,0-1.05-.38-1.53-1.15,0-2,1.36-4.48,3.91-7.48s4.9-4.56,6.92-4.56C179.16,29.91,179.42,30.08,179.42,31.54Z"/><path d="M203.55,38.66a2.49,2.49,0,0,0-1.76.92c-2.58,2.7-5.19,4.07-7.78,4.07a2.67,2.67,0,0,1-2-.77,2.26,2.26,0,0,1-.76-1.59c0-.19.06-.31.33-.37a18.75,18.75,0,0,0,8.8-4.48c2.31-2.18,3.48-4.52,3.48-6.95a5.16,5.16,0,0,0-5.36-5.21c-3.13,0-6.1,1.71-8.82,5.08a17,17,0,0,0-4.08,10.82,8.94,8.94,0,0,0,2.06,6.22,7.24,7.24,0,0,0,5.63,2.27,12.6,12.6,0,0,0,8.2-3c2.46-2,3.66-3.76,3.66-5.29C205.12,39.27,204.56,38.66,203.55,38.66Zm-5.61-9.56a.83.83,0,0,1,.68.33,1.33,1.33,0,0,1,.29.88c0,1-.78,2.19-2.3,3.5a11.85,11.85,0,0,1-4.88,2.51,13.35,13.35,0,0,1,2.6-4.77C195.67,29.93,196.89,29.1,197.94,29.1Z"/><path d="M243.38,30.47a22,22,0,0,0-2.24.21,15.53,15.53,0,0,1-6.21-.23,8.36,8.36,0,0,0-2-.44,2.56,2.56,0,0,0-2.28,2.36,2.79,2.79,0,0,0,.74,2,4.17,4.17,0,0,0,2.7.9l.31,0a12.4,12.4,0,0,1-2.65,4.21,23.8,23.8,0,0,1-2.9-3.3c-1.71-2.2-2.07-3.16-2.07-3.59,0-.26.27-.52.51-.7,3.61-2.77,5.44-5.65,5.44-8.55a7.29,7.29,0,0,0-1.62-4.67,5.4,5.4,0,0,0-4.45-2.07,7.19,7.19,0,0,0-5.56,2.42,8.68,8.68,0,0,0-2.19,6.05,15.13,15.13,0,0,0,1,5.19A2.06,2.06,0,0,1,220,31c0,.06,0,.22-.29.4-4.49,2.84-6.77,6.15-6.77,9.85a7.5,7.5,0,0,0,2.35,5.72,8.59,8.59,0,0,0,6.09,2.18A16.42,16.42,0,0,0,230.93,46a12.58,12.58,0,0,0,7.47,2.62,4.37,4.37,0,0,0,3.26-1.35,3.74,3.74,0,0,0,1.3-2.4c0-1.72-1-2-1.57-2a1.87,1.87,0,0,0-.55.08,5.27,5.27,0,0,1-1.79.4,6.9,6.9,0,0,1-3.74-1.17,25.37,25.37,0,0,0,4.46-6.28,1.23,1.23,0,0,1,.54-.58,5.23,5.23,0,0,1,1.47-.26c2.93-.22,3.54-1.73,3.54-3C245.32,31.5,245.07,30.47,243.38,30.47Zm-17.2-9.19a1.13,1.13,0,0,1,.93.61,2.81,2.81,0,0,1,.46,1.63c0,1.64-.93,3.27-2.77,4.84a11.2,11.2,0,0,1-.62-3.71,4.37,4.37,0,0,1,.66-2.43A1.67,1.67,0,0,1,226.18,21.28Zm1.19,21.44a8.47,8.47,0,0,1-4.56,1.45,4.66,4.66,0,0,1-3-.85,2.72,2.72,0,0,1-1-2.29c0-2,1.12-3.87,3.33-5.49A35.84,35.84,0,0,0,227.37,42.72Z"/><path d="M268.45,40.42a5,5,0,0,0-2.67,1.17,11.08,11.08,0,0,1-6.34,2.24c-1.76,0-2.59-.75-2.59-2.36a16.06,16.06,0,0,1,2.54-7.67c2.15-3.73,3.33-4.29,3.84-4.29.19,0,.48.43.63,1.65.29,2.5,1.6,3,2.64,3a2.43,2.43,0,0,0,1.63-.78,3.86,3.86,0,0,0,.83-2.87,7.16,7.16,0,0,0-1.42-4.18A4.31,4.31,0,0,0,264,24.3c-2.77,0-5.6,2-8.41,6.07s-4.2,7.75-4.2,11.2a7.39,7.39,0,0,0,1.83,5.29,7.06,7.06,0,0,0,5.33,1.93,13.22,13.22,0,0,0,7.68-2.56c2.5-1.74,3.72-3.16,3.72-4.34A1.34,1.34,0,0,0,268.45,40.42Z"/><path d="M284.29,25.07c-3.49,0-6.48,1.75-8.91,5.2a18,18,0,0,0-3.62,10.45,8.19,8.19,0,0,0,2,5.62A6.67,6.67,0,0,0,279,48.65a12.06,12.06,0,0,0,7.79-3.32A16.58,16.58,0,0,0,292,37.19l0-.08a14.09,14.09,0,0,0,.34-3,9.6,9.6,0,0,0-2.22-6.32A7.34,7.34,0,0,0,284.29,25.07Zm-3,6,.12-.09a3.62,3.62,0,0,1,2.45-.94A2.42,2.42,0,0,1,286,31.23a5.82,5.82,0,0,1,.82,3.22,9.34,9.34,0,0,1-2.61,6.41c-1.72,1.89-3.38,2.85-4.93,2.85A1.49,1.49,0,0,1,278,42.8a5.16,5.16,0,0,1-.57-2.58,12,12,0,0,1,1.32-5.35A13.31,13.31,0,0,1,281.32,31.08Z"/><path d="M300.43,41.13h0a3.06,3.06,0,0,0-2.12-.67,7.52,7.52,0,0,0-2.67.37,1.69,1.69,0,0,0-1.2,1.21,11.42,11.42,0,0,0-.11,1.79c0,1.49.23,2.37.71,2.77a3.08,3.08,0,0,0,2,.56,3.81,3.81,0,0,0,2.1-1,6.27,6.27,0,0,0,1.63-1.61,3.84,3.84,0,0,0,.4-1.92A2,2,0,0,0,300.43,41.13Z"/></g><g id="從選取範圍_影像" data-name="從選取範圍 影像"><path d="M11.88,72a18.1,18.1,0,0,1-8.8-7C-2.29,57.21-.57,47.44,7.71,39.58c2.53-2.4,5.53-5.83,8.91-3.41,2.06,1.47,2,5-.44,7.16a31.32,31.32,0,0,0-4.51,4.48c-2.8,3.69-4.73,7.67-1.81,12.24,2.55,4,8.34,5.9,13.42,4.56A20.85,20.85,0,0,0,32.63,59c9.8-9.71,13.19-22.57,17.55-35.51-2.75,1.15-4.92,2.14-7.16,2.95a5.36,5.36,0,0,1-6.08-1.54,3.64,3.64,0,0,1-.82-4c.94-2.34,2.92-2.24,5.06-2.38,3.31-.22,5.75-2.57,8.34-4.38,1.73-1.22,3.25-2.75,4.91-4.07s3.47-1.81,5.36-.56a4.26,4.26,0,0,1,1.77,5.12c-4.42,13.57-7.5,27.64-15,40.09-5.8,9.68-13.33,17-25,18.92C16.85,74.14,14.2,72.85,11.88,72Z"/><path d="M19.5,12.6a12.18,12.18,0,0,1,13.86-.87c2.31,1.47,3.44,3.59,2,6.15s-3.5,2.27-5.72.9a5,5,0,0,0-6.47.87c-1.94,2.44-3.22,5.25-1.36,8.2,1.55,2.44,4.59,1.65,6.71.11,2.54-1.84,5.07-3.23,7.18,0s-.06,5.5-2.64,7.19c-5.3,3.46-13.22,3-16.18.29C11.47,30.41,12.3,18.32,19.5,12.6Z"/><path d="M62.9,0c2.5.18,3.85,1.57,3.79,3.92s-1.12,4.43-3.9,4.5a3.63,3.63,0,0,1-4-3.7C58.7,2.08,60.32.48,62.9,0Z"/></g></g></svg>